<?xml version="1.0" encoding="UTF-8" ?>
<svg width="1470" height="1000" xmlns="http://www.w3.org/2000/svg" version="1.1">
	<line x1="719" y1="76" x2="667" y2="104" style="stroke-width: 2; stroke: rgb(100, 100, 100);"></line>
	<line x1="667" y1="136" x2="492" y2="164" style="stroke-width: 2; stroke: rgb(100, 100, 100);"></line>
	<line x1="492" y1="196" x2="149" y2="224" style="stroke-width: 2; stroke: rgb(100, 100, 100);"></line>
	<line x1="149" y1="256" x2="50" y2="284" style="stroke-width: 2; stroke: rgb(100, 100, 100);"></line>
	<line x1="66" y1="300" x2="105" y2="300" style="stroke-width: 2; stroke: rgb(100, 100, 100);"></line>
	<line x1="137" y1="300" x2="194" y2="300" style="stroke-width: 2; stroke: rgb(100, 100, 100);"></line>
	<line x1="149" y1="256" x2="210" y2="284" style="stroke-width: 2; stroke: rgb(100, 100, 100);"></line>
	<line x1="165" y1="240" x2="303" y2="240" style="stroke-width: 2; stroke: rgb(100, 100, 100);"></line>
	<line x1="335" y1="240" x2="380" y2="240" style="stroke-width: 2; stroke: rgb(100, 100, 100);"></line>
	<line x1="492" y1="196" x2="396" y2="224" style="stroke-width: 2; stroke: rgb(100, 100, 100);"></line>
	<line x1="412" y1="240" x2="457" y2="240" style="stroke-width: 2; stroke: rgb(100, 100, 100);"></line>
	<line x1="489" y1="240" x2="708" y2="240" style="stroke-width: 2; stroke: rgb(100, 100, 100);"></line>
	<line x1="492" y1="196" x2="724" y2="224" style="stroke-width: 2; stroke: rgb(100, 100, 100);"></line>
	<line x1="724" y1="256" x2="649" y2="284" style="stroke-width: 2; stroke: rgb(100, 100, 100);"></line>
	<line x1="649" y1="316" x2="529" y2="344" style="stroke-width: 2; stroke: rgb(100, 100, 100);"></line>
	<line x1="545" y1="360" x2="569" y2="360" style="stroke-width: 2; stroke: rgb(100, 100, 100);"></line>
	<line x1="601" y1="360" x2="679" y2="360" style="stroke-width: 2; stroke: rgb(100, 100, 100);"></line>
	<line x1="649" y1="316" x2="695" y2="344" style="stroke-width: 2; stroke: rgb(100, 100, 100);"></line>
	<line x1="665" y1="300" x2="809" y2="300" style="stroke-width: 2; stroke: rgb(100, 100, 100);"></line>
	<line x1="841" y1="300" x2="874" y2="300" style="stroke-width: 2; stroke: rgb(100, 100, 100);"></line>
	<line x1="724" y1="256" x2="890" y2="284" style="stroke-width: 2; stroke: rgb(100, 100, 100);"></line>
	<line x1="508" y1="180" x2="989" y2="180" style="stroke-width: 2; stroke: rgb(100, 100, 100);"></line>
	<line x1="1021" y1="180" x2="1084" y2="180" style="stroke-width: 2; stroke: rgb(100, 100, 100);"></line>
	<line x1="667" y1="136" x2="1100" y2="164" style="stroke-width: 2; stroke: rgb(100, 100, 100);"></line>
	<line x1="1116" y1="180" x2="1179" y2="180" style="stroke-width: 2; stroke: rgb(100, 100, 100);"></line>
	<line x1="1211" y1="180" x2="1244" y2="180" style="stroke-width: 2; stroke: rgb(100, 100, 100);"></line>
	<line x1="667" y1="136" x2="1260" y2="164" style="stroke-width: 2; stroke: rgb(100, 100, 100);"></line>
	<line x1="683" y1="120" x2="1339" y2="120" style="stroke-width: 2; stroke: rgb(100, 100, 100);"></line>
	<line x1="1371" y1="120" x2="1381" y2="120" style="stroke-width: 2; stroke: rgb(100, 100, 100);"></line>
	<line x1="719" y1="76" x2="1397" y2="104" style="stroke-width: 2; stroke: rgb(100, 100, 100);"></line>
	<image x="703" y="44" width="32" height="32" href="abstraction.gif" visibility="visible"></image>
	<rect x="698" width="50.4" height="15" y="75" style="fill: rgba(255, 255, 255, 0.7);"></rect>
	<text x="698" width="50.4" height="15" y="86" style="font-family: monospace;">exampl</text>
	<image x="651" y="104" width="32" height="32" href="abstraction.gif" visibility="visible"></image>
	<rect x="628" width="93.60000000000001" height="15" y="135" style="fill: rgba(255, 255, 255, 0.7);"></rect>
	<text x="628" width="93.60000000000001" height="15" y="146" style="font-family: monospace;">view_schedul</text>
	<image x="476" y="164" width="32" height="32" href="abstraction.gif" visibility="visible"></image>
	<rect x="438" width="129.6" height="15" y="195" style="fill: rgba(255, 255, 255, 0.7);"></rect>
	<text x="438" width="129.6" height="15" y="206" style="font-family: monospace;">select_doctor_tas</text>
	<image x="133" y="224" width="32" height="32" href="abstraction.gif" visibility="visible"></image>
	<rect x="98" width="122.4" height="15" y="255" style="fill: rgba(255, 255, 255, 0.7);"></rect>
	<text x="98" width="122.4" height="15" y="266" style="font-family: monospace;">browse_departmen</text>
	<image x="34" y="284" width="32" height="32" href="application.gif" visibility="visible"></image>
	<rect x="5" width="108" height="15" y="315" style="fill: rgba(255, 255, 255, 0.7);"></rect>
	<text x="5" width="108" height="15" y="326" style="font-family: monospace;">show_departmen</text>
	<rect x="105" y="284" width="32" height="32" fill="#FFFFFF"></rect>
	<rect x="109" width="28.8" height="15" y="291" style="fill: rgba(255, 255, 255, 0.7);"></rect>
	<text x="109" width="28.8" height="15" y="302" style="font-family: monospace;">[]&gt;&gt;</text>
	<image x="194" y="284" width="32" height="32" href="interaction.gif" visibility="visible"></image>
	<rect x="147" width="151.20000000000002" height="15" y="315" style="fill: rgba(255, 255, 255, 0.7);"></rect>
	<text x="147" width="151.20000000000002" height="15" y="326" style="font-family: monospace;">select_sub_departmen</text>
	<rect x="303" y="224" width="32" height="32" fill="#FFFFFF"></rect>
	<rect x="313" width="14.4" height="15" y="231" style="fill: rgba(255, 255, 255, 0.7);"></rect>
	<text x="313" width="14.4" height="15" y="242" style="font-family: monospace;">[&gt;</text>
	<image x="380" y="224" width="32" height="32" href="interaction.gif" visibility="visible"></image>
	<rect x="345" width="122.4" height="15" y="255" style="fill: rgba(255, 255, 255, 0.7);"></rect>
	<text x="345" width="122.4" height="15" y="266" style="font-family: monospace;">submit_departmen</text>
	<rect x="457" y="224" width="32" height="32" fill="#FFFFFF"></rect>
	<rect x="461" width="28.8" height="15" y="231" style="fill: rgba(255, 255, 255, 0.7);"></rect>
	<text x="461" width="28.8" height="15" y="242" style="font-family: monospace;">[]&gt;&gt;</text>
	<image x="708" y="224" width="32" height="32" href="abstraction.gif" visibility="visible"></image>
	<rect x="643" width="194.4" height="15" y="255" style="fill: rgba(255, 255, 255, 0.7);"></rect>
	<text x="643" width="194.4" height="15" y="266" style="font-family: monospace;">select_doctor_in_departmen</text>
	<image x="633" y="284" width="32" height="32" href="abstraction.gif" visibility="visible"></image>
	<rect x="607" width="100.8" height="15" y="315" style="fill: rgba(255, 255, 255, 0.7);"></rect>
	<text x="607" width="100.8" height="15" y="326" style="font-family: monospace;">filter_doctor</text>
	<image x="513" y="344" width="32" height="32" href="interaction.gif" visibility="visible"></image>
	<rect x="499" width="72" height="15" y="375" style="fill: rgba(255, 255, 255, 0.7);"></rect>
	<text x="499" width="72" height="15" y="386" style="font-family: monospace;">enter_wor</text>
	<rect x="569" y="344" width="32" height="32" fill="#FFFFFF"></rect>
	<rect x="573" width="28.8" height="15" y="351" style="fill: rgba(255, 255, 255, 0.7);"></rect>
	<text x="573" width="28.8" height="15" y="362" style="font-family: monospace;">|[]</text>
	<image x="679" y="344" width="32" height="32" href="application.gif" visibility="visible"></image>
	<rect x="611" width="201.6" height="15" y="375" style="fill: rgba(255, 255, 255, 0.7);"></rect>
	<text x="611" width="201.6" height="15" y="386" style="font-family: monospace;">show_doctors_containing_wor</text>
	<rect x="809" y="284" width="32" height="32" fill="#FFFFFF"></rect>
	<rect x="819" width="14.4" height="15" y="291" style="fill: rgba(255, 255, 255, 0.7);"></rect>
	<text x="819" width="14.4" height="15" y="302" style="font-family: monospace;">[&gt;</text>
	<image x="874" y="284" width="32" height="32" href="interaction.gif" visibility="visible"></image>
	<rect x="851" width="93.60000000000001" height="15" y="315" style="fill: rgba(255, 255, 255, 0.7);"></rect>
	<text x="851" width="93.60000000000001" height="15" y="326" style="font-family: monospace;">select_docto</text>
	<rect x="989" y="164" width="32" height="32" fill="#FFFFFF"></rect>
	<rect x="993" width="28.8" height="15" y="171" style="fill: rgba(255, 255, 255, 0.7);"></rect>
	<text x="993" width="28.8" height="15" y="182" style="font-family: monospace;">[]&gt;&gt;</text>
	<image x="1084" y="164" width="32" height="32" href="interaction.gif" visibility="visible"></image>
	<rect x="1031" width="165.6" height="15" y="195" style="fill: rgba(255, 255, 255, 0.7);"></rect>
	<text x="1031" width="165.6" height="15" y="206" style="font-family: monospace;">use_this_doctorsdfhkgf</text>
	<rect x="1179" y="164" width="32" height="32" fill="#FFFFFF"></rect>
	<rect x="1183" width="28.8" height="15" y="171" style="fill: rgba(255, 255, 255, 0.7);"></rect>
	<text x="1183" width="28.8" height="15" y="182" style="font-family: monospace;">[]&gt;&gt;</text>
	<image x="1244" y="164" width="32" height="32" href="application.gif" visibility="visible"></image>
	<rect x="1221" width="93.60000000000001" height="15" y="195" style="fill: rgba(255, 255, 255, 0.7);"></rect>
	<text x="1221" width="93.60000000000001" height="15" y="206" style="font-family: monospace;">show_schedul</text>
	<rect x="1339" y="104" width="32" height="32" fill="#FFFFFF"></rect>
	<rect x="1349" width="14.4" height="15" y="111" style="fill: rgba(255, 255, 255, 0.7);"></rect>
	<text x="1349" width="14.4" height="15" y="122" style="font-family: monospace;">[&gt;</text>
	<image x="1381" y="104" width="32" height="32" href="interaction.gif" visibility="visible"></image>
	<rect x="1385" width="28.8" height="15" y="135" style="fill: rgba(255, 255, 255, 0.7);"></rect>
	<text x="1385" width="28.8" height="15" y="146" style="font-family: monospace;">qui</text>
</svg>
